<svg xmlns="http://www.w3.org/2000/svg" width="1380" height="665" viewBox="0 0 1380 665">
<rect width="100%" height="100%" fill="#ffffff"/>
<style>text{font-family:Consolas,Menlo,monospace}.label{font-size:13px;fill:#1d2b3a}.axis{font-size:11px;fill:#52616f}</style>
<text x="130" y="24" font-size="16" font-weight="700" fill="#17202a">sync_fifo simulation waveform</text>
<text x="130" y="42" class="axis">time: 0 ns to 365 ns</text>
<line x1="130.0" y1="42" x2="130.0" y2="630" stroke="#edf1f5"/>
<text x="120.0" y="650" class="axis">0</text>
<line x1="297.1" y1="42" x2="297.1" y2="630" stroke="#edf1f5"/>
<text x="287.1" y="650" class="axis">50</text>
<line x1="464.2" y1="42" x2="464.2" y2="630" stroke="#edf1f5"/>
<text x="454.2" y="650" class="axis">100</text>
<line x1="631.4" y1="42" x2="631.4" y2="630" stroke="#edf1f5"/>
<text x="621.4" y="650" class="axis">150</text>
<line x1="798.5" y1="42" x2="798.5" y2="630" stroke="#edf1f5"/>
<text x="788.5" y="650" class="axis">200</text>
<line x1="965.6" y1="42" x2="965.6" y2="630" stroke="#edf1f5"/>
<text x="955.6" y="650" class="axis">250</text>
<line x1="1132.7" y1="42" x2="1132.7" y2="630" stroke="#edf1f5"/>
<text x="1122.7" y="650" class="axis">300</text>
<line x1="1299.9" y1="42" x2="1299.9" y2="630" stroke="#edf1f5"/>
<text x="1289.9" y="650" class="axis">350</text>
<line x1="130" y1="84" x2="1350" y2="84" stroke="#f1f3f6"/>
<text x="16" y="70" class="label">clk</text>
<path d="M 130.0 75.0 L 130.0 75.0 L 130.0 75.0 L 146.7 75.0 L 146.7 57.0 L 163.4 57.0 L 163.4 75.0 L 180.1 75.0 L 180.1 57.0 L 196.8 57.0 L 196.8 75.0 L 213.6 75.0 L 213.6 57.0 L 230.3 57.0 L 230.3 75.0 L 247.0 75.0 L 247.0 57.0 L 263.7 57.0 L 263.7 75.0 L 280.4 75.0 L 280.4 57.0 L 297.1 57.0 L 297.1 75.0 L 313.8 75.0 L 313.8 57.0 L 330.5 57.0 L 330.5 75.0 L 347.3 75.0 L 347.3 57.0 L 364.0 57.0 L 364.0 75.0 L 380.7 75.0 L 380.7 57.0 L 397.4 57.0 L 397.4 75.0 L 414.1 75.0 L 414.1 57.0 L 430.8 57.0 L 430.8 75.0 L 447.5 75.0 L 447.5 57.0 L 464.2 57.0 L 464.2 75.0 L 481.0 75.0 L 481.0 57.0 L 497.7 57.0 L 497.7 75.0 L 514.4 75.0 L 514.4 57.0 L 531.1 57.0 L 531.1 75.0 L 547.8 75.0 L 547.8 57.0 L 564.5 57.0 L 564.5 75.0 L 581.2 75.0 L 581.2 57.0 L 597.9 57.0 L 597.9 75.0 L 614.7 75.0 L 614.7 57.0 L 631.4 57.0 L 631.4 75.0 L 648.1 75.0 L 648.1 57.0 L 664.8 57.0 L 664.8 75.0 L 681.5 75.0 L 681.5 57.0 L 698.2 57.0 L 698.2 75.0 L 714.9 75.0 L 714.9 57.0 L 731.6 57.0 L 731.6 75.0 L 748.4 75.0 L 748.4 57.0 L 765.1 57.0 L 765.1 75.0 L 781.8 75.0 L 781.8 57.0 L 798.5 57.0 L 798.5 75.0 L 815.2 75.0 L 815.2 57.0 L 831.9 57.0 L 831.9 75.0 L 848.6 75.0 L 848.6 57.0 L 865.3 57.0 L 865.3 75.0 L 882.1 75.0 L 882.1 57.0 L 898.8 57.0 L 898.8 75.0 L 915.5 75.0 L 915.5 57.0 L 932.2 57.0 L 932.2 75.0 L 948.9 75.0 L 948.9 57.0 L 965.6 57.0 L 965.6 75.0 L 982.3 75.0 L 982.3 57.0 L 999.0 57.0 L 999.0 75.0 L 1015.8 75.0 L 1015.8 57.0 L 1032.5 57.0 L 1032.5 75.0 L 1049.2 75.0 L 1049.2 57.0 L 1065.9 57.0 L 1065.9 75.0 L 1082.6 75.0 L 1082.6 57.0 L 1099.3 57.0 L 1099.3 75.0 L 1116.0 75.0 L 1116.0 57.0 L 1132.7 57.0 L 1132.7 75.0 L 1149.5 75.0 L 1149.5 57.0 L 1166.2 57.0 L 1166.2 75.0 L 1182.9 75.0 L 1182.9 57.0 L 1199.6 57.0 L 1199.6 75.0 L 1216.3 75.0 L 1216.3 57.0 L 1233.0 57.0 L 1233.0 75.0 L 1249.7 75.0 L 1249.7 57.0 L 1266.4 57.0 L 1266.4 75.0 L 1283.2 75.0 L 1283.2 57.0 L 1299.9 57.0 L 1299.9 75.0 L 1316.6 75.0 L 1316.6 57.0 L 1333.3 57.0 L 1333.3 75.0 L 1350.0 75.0 L 1350.0 57.0 L 1350.0 57.0" fill="none" stroke="#0b5cab" stroke-width="2"/>
<line x1="130" y1="122" x2="1350" y2="122" stroke="#f1f3f6"/>
<text x="16" y="108" class="label">rst_n</text>
<path d="M 130.0 113.0 L 130.0 113.0 L 130.0 113.0 L 213.6 113.0 L 213.6 95.0 L 1350.0 95.0" fill="none" stroke="#0b5cab" stroke-width="2"/>
<line x1="130" y1="160" x2="1350" y2="160" stroke="#f1f3f6"/>
<text x="16" y="146" class="label">wr_en</text>
<path d="M 130.0 151.0 L 130.0 151.0 L 130.0 151.0 L 263.7 151.0 L 263.7 133.0 L 297.1 133.0 L 297.1 151.0 L 330.5 151.0 L 330.5 133.0 L 364.0 133.0 L 364.0 151.0 L 397.4 151.0 L 397.4 133.0 L 430.8 133.0 L 430.8 151.0 L 464.2 151.0 L 464.2 133.0 L 497.7 133.0 L 497.7 151.0 L 531.1 151.0 L 531.1 133.0 L 564.5 133.0 L 564.5 151.0 L 731.6 151.0 L 731.6 133.0 L 765.1 133.0 L 765.1 151.0 L 798.5 151.0 L 798.5 133.0 L 831.9 133.0 L 831.9 151.0 L 865.3 151.0 L 865.3 133.0 L 898.8 133.0 L 898.8 151.0 L 1350.0 151.0" fill="none" stroke="#0b5cab" stroke-width="2"/>
<line x1="130" y1="198" x2="1350" y2="198" stroke="#f1f3f6"/>
<text x="16" y="184" class="label">rd_en</text>
<path d="M 130.0 189.0 L 130.0 189.0 L 130.0 189.0 L 597.9 189.0 L 597.9 171.0 L 631.4 171.0 L 631.4 189.0 L 664.8 189.0 L 664.8 171.0 L 698.2 171.0 L 698.2 189.0 L 865.3 189.0 L 865.3 171.0 L 898.8 171.0 L 898.8 189.0 L 932.2 189.0 L 932.2 171.0 L 965.6 171.0 L 965.6 189.0 L 999.0 189.0 L 999.0 171.0 L 1032.5 171.0 L 1032.5 189.0 L 1065.9 189.0 L 1065.9 171.0 L 1099.3 171.0 L 1099.3 189.0 L 1132.7 189.0 L 1132.7 171.0 L 1166.2 171.0 L 1166.2 189.0 L 1199.6 189.0 L 1199.6 171.0 L 1233.0 171.0 L 1233.0 189.0 L 1350.0 189.0" fill="none" stroke="#0b5cab" stroke-width="2"/>
<line x1="130" y1="236" x2="1350" y2="236" stroke="#f1f3f6"/>
<text x="16" y="222" class="label">din</text>
<rect x="130.0" y="206.0" width="133.7" height="24" fill="#eef4ff" stroke="#3973b7" stroke-width="1"/>
<text x="134.0" y="225.0" font-size="11" fill="#17324d">0x00</text>
<rect x="263.7" y="206.0" width="33.4" height="24" fill="#f8fbff" stroke="#3973b7" stroke-width="1"/>
<text x="267.7" y="225.0" font-size="11" fill="#17324d">0x11</text>
<rect x="297.1" y="206.0" width="33.4" height="24" fill="#eef4ff" stroke="#3973b7" stroke-width="1"/>
<text x="301.1" y="225.0" font-size="11" fill="#17324d">0x00</text>
<rect x="330.5" y="206.0" width="33.4" height="24" fill="#f8fbff" stroke="#3973b7" stroke-width="1"/>
<text x="334.5" y="225.0" font-size="11" fill="#17324d">0x22</text>
<rect x="364.0" y="206.0" width="33.4" height="24" fill="#eef4ff" stroke="#3973b7" stroke-width="1"/>
<text x="368.0" y="225.0" font-size="11" fill="#17324d">0x00</text>
<rect x="397.4" y="206.0" width="33.4" height="24" fill="#f8fbff" stroke="#3973b7" stroke-width="1"/>
<text x="401.4" y="225.0" font-size="11" fill="#17324d">0x33</text>
<rect x="430.8" y="206.0" width="33.4" height="24" fill="#eef4ff" stroke="#3973b7" stroke-width="1"/>
<text x="434.8" y="225.0" font-size="11" fill="#17324d">0x00</text>
<rect x="464.2" y="206.0" width="33.4" height="24" fill="#f8fbff" stroke="#3973b7" stroke-width="1"/>
<text x="468.2" y="225.0" font-size="11" fill="#17324d">0x44</text>
<rect x="497.7" y="206.0" width="33.4" height="24" fill="#eef4ff" stroke="#3973b7" stroke-width="1"/>
<text x="501.7" y="225.0" font-size="11" fill="#17324d">0x00</text>
<rect x="531.1" y="206.0" width="33.4" height="24" fill="#f8fbff" stroke="#3973b7" stroke-width="1"/>
<text x="535.1" y="225.0" font-size="11" fill="#17324d">0x55</text>
<rect x="564.5" y="206.0" width="167.1" height="24" fill="#eef4ff" stroke="#3973b7" stroke-width="1"/>
<text x="568.5" y="225.0" font-size="11" fill="#17324d">0x00</text>
<rect x="731.6" y="206.0" width="33.4" height="24" fill="#f8fbff" stroke="#3973b7" stroke-width="1"/>
<text x="735.6" y="225.0" font-size="11" fill="#17324d">0x55</text>
<rect x="765.1" y="206.0" width="33.4" height="24" fill="#eef4ff" stroke="#3973b7" stroke-width="1"/>
<text x="769.1" y="225.0" font-size="11" fill="#17324d">0x00</text>
<rect x="798.5" y="206.0" width="33.4" height="24" fill="#f8fbff" stroke="#3973b7" stroke-width="1"/>
<text x="802.5" y="225.0" font-size="11" fill="#17324d">0x66</text>
<rect x="831.9" y="206.0" width="33.4" height="24" fill="#eef4ff" stroke="#3973b7" stroke-width="1"/>
<text x="835.9" y="225.0" font-size="11" fill="#17324d">0x00</text>
<rect x="865.3" y="206.0" width="33.4" height="24" fill="#f8fbff" stroke="#3973b7" stroke-width="1"/>
<text x="869.3" y="225.0" font-size="11" fill="#17324d">0x77</text>
<rect x="898.8" y="206.0" width="451.2" height="24" fill="#eef4ff" stroke="#3973b7" stroke-width="1"/>
<text x="902.8" y="225.0" font-size="11" fill="#17324d">0x00</text>
<line x1="130" y1="274" x2="1350" y2="274" stroke="#f1f3f6"/>
<text x="16" y="260" class="label">dout</text>
<rect x="130.0" y="244.0" width="484.7" height="24" fill="#eef4ff" stroke="#3973b7" stroke-width="1"/>
<text x="134.0" y="263.0" font-size="11" fill="#17324d">0x00</text>
<rect x="614.7" y="244.0" width="66.8" height="24" fill="#f8fbff" stroke="#3973b7" stroke-width="1"/>
<text x="618.7" y="263.0" font-size="11" fill="#17324d">0x11</text>
<rect x="681.5" y="244.0" width="200.5" height="24" fill="#eef4ff" stroke="#3973b7" stroke-width="1"/>
<text x="685.5" y="263.0" font-size="11" fill="#17324d">0x22</text>
<rect x="882.1" y="244.0" width="66.8" height="24" fill="#f8fbff" stroke="#3973b7" stroke-width="1"/>
<text x="886.1" y="263.0" font-size="11" fill="#17324d">0x33</text>
<rect x="948.9" y="244.0" width="66.8" height="24" fill="#eef4ff" stroke="#3973b7" stroke-width="1"/>
<text x="952.9" y="263.0" font-size="11" fill="#17324d">0x44</text>
<rect x="1015.8" y="244.0" width="66.8" height="24" fill="#f8fbff" stroke="#3973b7" stroke-width="1"/>
<text x="1019.8" y="263.0" font-size="11" fill="#17324d">0x55</text>
<rect x="1082.6" y="244.0" width="66.8" height="24" fill="#eef4ff" stroke="#3973b7" stroke-width="1"/>
<text x="1086.6" y="263.0" font-size="11" fill="#17324d">0x66</text>
<rect x="1149.5" y="244.0" width="200.5" height="24" fill="#f8fbff" stroke="#3973b7" stroke-width="1"/>
<text x="1153.5" y="263.0" font-size="11" fill="#17324d">0x77</text>
<line x1="130" y1="312" x2="1350" y2="312" stroke="#f1f3f6"/>
<text x="16" y="298" class="label">dout_valid</text>
<path d="M 130.0 303.0 L 130.0 303.0 L 130.0 303.0 L 614.7 303.0 L 614.7 285.0 L 648.1 285.0 L 648.1 303.0 L 681.5 303.0 L 681.5 285.0 L 714.9 285.0 L 714.9 303.0 L 882.1 303.0 L 882.1 285.0 L 915.5 285.0 L 915.5 303.0 L 948.9 303.0 L 948.9 285.0 L 982.3 285.0 L 982.3 303.0 L 1015.8 303.0 L 1015.8 285.0 L 1049.2 285.0 L 1049.2 303.0 L 1082.6 303.0 L 1082.6 285.0 L 1116.0 285.0 L 1116.0 303.0 L 1149.5 303.0 L 1149.5 285.0 L 1182.9 285.0 L 1182.9 303.0 L 1350.0 303.0" fill="none" stroke="#0b5cab" stroke-width="2"/>
<line x1="130" y1="350" x2="1350" y2="350" stroke="#f1f3f6"/>
<text x="16" y="336" class="label">full</text>
<path d="M 130.0 341.0 L 130.0 341.0 L 130.0 341.0 L 481.0 341.0 L 481.0 323.0 L 614.7 323.0 L 614.7 341.0 L 815.2 341.0 L 815.2 323.0 L 948.9 323.0 L 948.9 341.0 L 1350.0 341.0" fill="none" stroke="#0b5cab" stroke-width="2"/>
<line x1="130" y1="388" x2="1350" y2="388" stroke="#f1f3f6"/>
<text x="16" y="374" class="label">empty</text>
<path d="M 130.0 361.0 L 130.0 361.0 L 130.0 361.0 L 280.4 361.0 L 280.4 379.0 L 1149.5 379.0 L 1149.5 361.0 L 1350.0 361.0" fill="none" stroke="#0b5cab" stroke-width="2"/>
<line x1="130" y1="426" x2="1350" y2="426" stroke="#f1f3f6"/>
<text x="16" y="412" class="label">wr_ptr</text>
<rect x="130.0" y="396.0" width="150.4" height="24" fill="#eef4ff" stroke="#3973b7" stroke-width="1"/>
<text x="134.0" y="415.0" font-size="11" fill="#17324d">0</text>
<rect x="280.4" y="396.0" width="66.8" height="24" fill="#f8fbff" stroke="#3973b7" stroke-width="1"/>
<text x="284.4" y="415.0" font-size="11" fill="#17324d">1</text>
<rect x="347.3" y="396.0" width="66.8" height="24" fill="#eef4ff" stroke="#3973b7" stroke-width="1"/>
<text x="351.3" y="415.0" font-size="11" fill="#17324d">2</text>
<rect x="414.1" y="396.0" width="66.8" height="24" fill="#f8fbff" stroke="#3973b7" stroke-width="1"/>
<text x="418.1" y="415.0" font-size="11" fill="#17324d">3</text>
<rect x="481.0" y="396.0" width="267.4" height="24" fill="#eef4ff" stroke="#3973b7" stroke-width="1"/>
<text x="485.0" y="415.0" font-size="11" fill="#17324d">4</text>
<rect x="748.4" y="396.0" width="66.8" height="24" fill="#f8fbff" stroke="#3973b7" stroke-width="1"/>
<text x="752.4" y="415.0" font-size="11" fill="#17324d">5</text>
<rect x="815.2" y="396.0" width="66.8" height="24" fill="#eef4ff" stroke="#3973b7" stroke-width="1"/>
<text x="819.2" y="415.0" font-size="11" fill="#17324d">6</text>
<rect x="882.1" y="396.0" width="467.9" height="24" fill="#f8fbff" stroke="#3973b7" stroke-width="1"/>
<text x="886.1" y="415.0" font-size="11" fill="#17324d">7</text>
<line x1="130" y1="464" x2="1350" y2="464" stroke="#f1f3f6"/>
<text x="16" y="450" class="label">rd_ptr</text>
<rect x="130.0" y="434.0" width="484.7" height="24" fill="#eef4ff" stroke="#3973b7" stroke-width="1"/>
<text x="134.0" y="453.0" font-size="11" fill="#17324d">0</text>
<rect x="614.7" y="434.0" width="66.8" height="24" fill="#f8fbff" stroke="#3973b7" stroke-width="1"/>
<text x="618.7" y="453.0" font-size="11" fill="#17324d">1</text>
<rect x="681.5" y="434.0" width="200.5" height="24" fill="#eef4ff" stroke="#3973b7" stroke-width="1"/>
<text x="685.5" y="453.0" font-size="11" fill="#17324d">2</text>
<rect x="882.1" y="434.0" width="66.8" height="24" fill="#f8fbff" stroke="#3973b7" stroke-width="1"/>
<text x="886.1" y="453.0" font-size="11" fill="#17324d">3</text>
<rect x="948.9" y="434.0" width="66.8" height="24" fill="#eef4ff" stroke="#3973b7" stroke-width="1"/>
<text x="952.9" y="453.0" font-size="11" fill="#17324d">4</text>
<rect x="1015.8" y="434.0" width="66.8" height="24" fill="#f8fbff" stroke="#3973b7" stroke-width="1"/>
<text x="1019.8" y="453.0" font-size="11" fill="#17324d">5</text>
<rect x="1082.6" y="434.0" width="66.8" height="24" fill="#eef4ff" stroke="#3973b7" stroke-width="1"/>
<text x="1086.6" y="453.0" font-size="11" fill="#17324d">6</text>
<rect x="1149.5" y="434.0" width="200.5" height="24" fill="#f8fbff" stroke="#3973b7" stroke-width="1"/>
<text x="1153.5" y="453.0" font-size="11" fill="#17324d">7</text>
<line x1="130" y1="502" x2="1350" y2="502" stroke="#f1f3f6"/>
<text x="16" y="488" class="label">mem[0]</text>
<rect x="130.0" y="472.0" width="150.4" height="24" fill="#eef4ff" stroke="#3973b7" stroke-width="1"/>
<text x="134.0" y="491.0" font-size="11" fill="#17324d">x</text>
<rect x="280.4" y="472.0" width="467.9" height="24" fill="#f8fbff" stroke="#3973b7" stroke-width="1"/>
<text x="284.4" y="491.0" font-size="11" fill="#17324d">17</text>
<rect x="748.4" y="472.0" width="601.6" height="24" fill="#eef4ff" stroke="#3973b7" stroke-width="1"/>
<text x="752.4" y="491.0" font-size="11" fill="#17324d">85</text>
<line x1="130" y1="540" x2="1350" y2="540" stroke="#f1f3f6"/>
<text x="16" y="526" class="label">mem[1]</text>
<rect x="130.0" y="510.0" width="217.3" height="24" fill="#eef4ff" stroke="#3973b7" stroke-width="1"/>
<text x="134.0" y="529.0" font-size="11" fill="#17324d">x</text>
<rect x="347.3" y="510.0" width="467.9" height="24" fill="#f8fbff" stroke="#3973b7" stroke-width="1"/>
<text x="351.3" y="529.0" font-size="11" fill="#17324d">34</text>
<rect x="815.2" y="510.0" width="534.8" height="24" fill="#eef4ff" stroke="#3973b7" stroke-width="1"/>
<text x="819.2" y="529.0" font-size="11" fill="#17324d">102</text>
<line x1="130" y1="578" x2="1350" y2="578" stroke="#f1f3f6"/>
<text x="16" y="564" class="label">mem[2]</text>
<rect x="130.0" y="548.0" width="284.1" height="24" fill="#eef4ff" stroke="#3973b7" stroke-width="1"/>
<text x="134.0" y="567.0" font-size="11" fill="#17324d">x</text>
<rect x="414.1" y="548.0" width="467.9" height="24" fill="#f8fbff" stroke="#3973b7" stroke-width="1"/>
<text x="418.1" y="567.0" font-size="11" fill="#17324d">51</text>
<rect x="882.1" y="548.0" width="467.9" height="24" fill="#eef4ff" stroke="#3973b7" stroke-width="1"/>
<text x="886.1" y="567.0" font-size="11" fill="#17324d">119</text>
<line x1="130" y1="616" x2="1350" y2="616" stroke="#f1f3f6"/>
<text x="16" y="602" class="label">mem[3]</text>
<rect x="130.0" y="586.0" width="351.0" height="24" fill="#eef4ff" stroke="#3973b7" stroke-width="1"/>
<text x="134.0" y="605.0" font-size="11" fill="#17324d">x</text>
<rect x="481.0" y="586.0" width="869.0" height="24" fill="#f8fbff" stroke="#3973b7" stroke-width="1"/>
<text x="485.0" y="605.0" font-size="11" fill="#17324d">68</text>
</svg>